<mxfile host="app.diagrams.net" modified="2023-03-07T03:53:56.984Z" agent="5.0 (Windows NT 10.0; Win64; x64) AppleWebKit/537.36 (KHTML, like Gecko) Chrome/99.0.4844.51 Safari/537.36" etag="wM3nNJXYJfyXY1eHcB9F" version="20.8.20" type="github">
  <diagram name="第 1 页" id="gbgjH_k7oqMJmJcopQBh">
    <mxGraphModel dx="1181" dy="627" grid="1" gridSize="10" guides="1" tooltips="1" connect="1" arrows="1" fold="1" page="1" pageScale="1" pageWidth="827" pageHeight="1169" math="0" shadow="0">
      <root>
        <mxCell id="0" />
        <mxCell id="1" parent="0" />
        <mxCell id="zgMV8sDTuGKNa8VzQRrp-17" value="" style="edgeStyle=orthogonalEdgeStyle;rounded=0;orthogonalLoop=1;jettySize=auto;html=1;" parent="1" source="zgMV8sDTuGKNa8VzQRrp-13" target="zgMV8sDTuGKNa8VzQRrp-14" edge="1">
          <mxGeometry relative="1" as="geometry" />
        </mxCell>
        <mxCell id="zgMV8sDTuGKNa8VzQRrp-13" value="" style="rounded=0;whiteSpace=wrap;html=1;rotation=90;" parent="1" vertex="1">
          <mxGeometry x="50" y="410" width="120" height="60" as="geometry" />
        </mxCell>
        <mxCell id="zgMV8sDTuGKNa8VzQRrp-18" value="" style="edgeStyle=orthogonalEdgeStyle;rounded=0;orthogonalLoop=1;jettySize=auto;html=1;" parent="1" source="zgMV8sDTuGKNa8VzQRrp-14" target="zgMV8sDTuGKNa8VzQRrp-15" edge="1">
          <mxGeometry relative="1" as="geometry" />
        </mxCell>
        <mxCell id="zgMV8sDTuGKNa8VzQRrp-14" value="" style="rounded=0;whiteSpace=wrap;html=1;rotation=90;" parent="1" vertex="1">
          <mxGeometry x="180" y="410" width="120" height="60" as="geometry" />
        </mxCell>
        <mxCell id="zgMV8sDTuGKNa8VzQRrp-20" value="" style="edgeStyle=orthogonalEdgeStyle;rounded=0;orthogonalLoop=1;jettySize=auto;html=1;" parent="1" source="zgMV8sDTuGKNa8VzQRrp-15" target="zgMV8sDTuGKNa8VzQRrp-19" edge="1">
          <mxGeometry relative="1" as="geometry" />
        </mxCell>
        <mxCell id="zgMV8sDTuGKNa8VzQRrp-15" value="" style="rounded=0;whiteSpace=wrap;html=1;rotation=90;" parent="1" vertex="1">
          <mxGeometry x="310" y="410" width="120" height="60" as="geometry" />
        </mxCell>
        <mxCell id="zgMV8sDTuGKNa8VzQRrp-19" value="" style="ellipse;whiteSpace=wrap;html=1;aspect=fixed;" parent="1" vertex="1">
          <mxGeometry x="490" y="400" width="80" height="80" as="geometry" />
        </mxCell>
        <mxCell id="zgMV8sDTuGKNa8VzQRrp-22" value="" style="edgeStyle=elbowEdgeStyle;elbow=vertical;endArrow=classic;html=1;curved=0;rounded=0;endSize=8;startSize=8;exitX=0;exitY=0.5;exitDx=0;exitDy=0;entryX=0.5;entryY=0;entryDx=0;entryDy=0;" parent="1" source="zgMV8sDTuGKNa8VzQRrp-13" target="zgMV8sDTuGKNa8VzQRrp-19" edge="1">
          <mxGeometry width="50" height="50" relative="1" as="geometry">
            <mxPoint x="380" y="600" as="sourcePoint" />
            <mxPoint x="430" y="550" as="targetPoint" />
            <Array as="points">
              <mxPoint x="330" y="330" />
            </Array>
          </mxGeometry>
        </mxCell>
        <mxCell id="zgMV8sDTuGKNa8VzQRrp-24" value="" style="rounded=0;whiteSpace=wrap;html=1;rotation=90;" parent="1" vertex="1">
          <mxGeometry x="50" y="650" width="120" height="60" as="geometry" />
        </mxCell>
        <mxCell id="zgMV8sDTuGKNa8VzQRrp-27" value="" style="edgeStyle=orthogonalEdgeStyle;rounded=0;orthogonalLoop=1;jettySize=auto;html=1;" parent="1" source="zgMV8sDTuGKNa8VzQRrp-28" target="zgMV8sDTuGKNa8VzQRrp-29" edge="1">
          <mxGeometry relative="1" as="geometry" />
        </mxCell>
        <mxCell id="zgMV8sDTuGKNa8VzQRrp-28" value="" style="rounded=0;whiteSpace=wrap;html=1;rotation=90;" parent="1" vertex="1">
          <mxGeometry x="310" y="650" width="120" height="60" as="geometry" />
        </mxCell>
        <mxCell id="zgMV8sDTuGKNa8VzQRrp-29" value="" style="ellipse;whiteSpace=wrap;html=1;aspect=fixed;" parent="1" vertex="1">
          <mxGeometry x="490" y="640" width="80" height="80" as="geometry" />
        </mxCell>
        <mxCell id="zgMV8sDTuGKNa8VzQRrp-30" value="" style="edgeStyle=elbowEdgeStyle;elbow=vertical;endArrow=classic;html=1;curved=0;rounded=0;endSize=8;startSize=8;exitX=0;exitY=0.5;exitDx=0;exitDy=0;entryX=0.5;entryY=0;entryDx=0;entryDy=0;" parent="1" source="zgMV8sDTuGKNa8VzQRrp-24" target="zgMV8sDTuGKNa8VzQRrp-29" edge="1">
          <mxGeometry width="50" height="50" relative="1" as="geometry">
            <mxPoint x="380" y="840" as="sourcePoint" />
            <mxPoint x="430" y="790" as="targetPoint" />
            <Array as="points">
              <mxPoint x="330" y="570" />
            </Array>
          </mxGeometry>
        </mxCell>
        <mxCell id="zgMV8sDTuGKNa8VzQRrp-31" value="" style="edgeStyle=elbowEdgeStyle;elbow=horizontal;endArrow=classic;html=1;curved=0;rounded=0;endSize=8;startSize=8;exitX=0.5;exitY=0;exitDx=0;exitDy=0;entryX=0.5;entryY=1;entryDx=0;entryDy=0;" parent="1" source="zgMV8sDTuGKNa8VzQRrp-24" target="zgMV8sDTuGKNa8VzQRrp-28" edge="1">
          <mxGeometry width="50" height="50" relative="1" as="geometry">
            <mxPoint x="380" y="600" as="sourcePoint" />
            <mxPoint x="430" y="550" as="targetPoint" />
          </mxGeometry>
        </mxCell>
        <mxCell id="zgMV8sDTuGKNa8VzQRrp-33" value="C" style="ellipse;whiteSpace=wrap;html=1;aspect=fixed;" parent="1" vertex="1">
          <mxGeometry x="630" y="1150" width="80" height="80" as="geometry" />
        </mxCell>
        <mxCell id="zgMV8sDTuGKNa8VzQRrp-34" value="chunk" style="rounded=0;whiteSpace=wrap;html=1;rotation=90;" parent="1" vertex="1">
          <mxGeometry x="310" y="920" width="120" height="60" as="geometry" />
        </mxCell>
        <mxCell id="RsRZTkzRLWD13CaNmiui-7" value="" style="edgeStyle=orthogonalEdgeStyle;rounded=0;orthogonalLoop=1;jettySize=auto;html=1;" edge="1" parent="1" source="zgMV8sDTuGKNa8VzQRrp-36">
          <mxGeometry relative="1" as="geometry">
            <mxPoint x="620" y="950" as="targetPoint" />
          </mxGeometry>
        </mxCell>
        <mxCell id="zgMV8sDTuGKNa8VzQRrp-36" value="" style="ellipse;whiteSpace=wrap;html=1;aspect=fixed;" parent="1" vertex="1">
          <mxGeometry x="490" y="910" width="80" height="80" as="geometry" />
        </mxCell>
        <mxCell id="zgMV8sDTuGKNa8VzQRrp-37" value="" style="edgeStyle=elbowEdgeStyle;elbow=vertical;endArrow=classic;html=1;curved=0;rounded=0;endSize=8;startSize=8;exitX=0;exitY=0.5;exitDx=0;exitDy=0;entryX=0.5;entryY=0;entryDx=0;entryDy=0;" parent="1" source="zgMV8sDTuGKNa8VzQRrp-34" target="zgMV8sDTuGKNa8VzQRrp-36" edge="1">
          <mxGeometry width="50" height="50" relative="1" as="geometry">
            <mxPoint x="540" y="950" as="sourcePoint" />
            <mxPoint x="590" y="900" as="targetPoint" />
            <Array as="points">
              <mxPoint x="530" y="840" />
            </Array>
          </mxGeometry>
        </mxCell>
        <mxCell id="zgMV8sDTuGKNa8VzQRrp-38" value="" style="edgeStyle=elbowEdgeStyle;elbow=vertical;endArrow=classic;html=1;curved=0;rounded=0;endSize=8;startSize=8;exitX=1;exitY=0.5;exitDx=0;exitDy=0;entryX=0.5;entryY=1;entryDx=0;entryDy=0;" parent="1" source="zgMV8sDTuGKNa8VzQRrp-34" target="zgMV8sDTuGKNa8VzQRrp-36" edge="1">
          <mxGeometry width="50" height="50" relative="1" as="geometry">
            <mxPoint x="410" y="900" as="sourcePoint" />
            <mxPoint x="700" y="920" as="targetPoint" />
            <Array as="points">
              <mxPoint x="530" y="1070" />
            </Array>
          </mxGeometry>
        </mxCell>
        <mxCell id="zgMV8sDTuGKNa8VzQRrp-39" value="input" style="rounded=0;whiteSpace=wrap;html=1;rotation=90;" parent="1" vertex="1">
          <mxGeometry x="50" y="920" width="120" height="60" as="geometry" />
        </mxCell>
        <mxCell id="zgMV8sDTuGKNa8VzQRrp-46" value="SCA Block" style="text;html=1;strokeColor=none;fillColor=none;align=center;verticalAlign=middle;whiteSpace=wrap;rounded=0;" parent="1" vertex="1">
          <mxGeometry x="280" y="260" width="60" height="30" as="geometry" />
        </mxCell>
        <mxCell id="zgMV8sDTuGKNa8VzQRrp-47" value="SPA Block" style="text;html=1;strokeColor=none;fillColor=none;align=center;verticalAlign=middle;whiteSpace=wrap;rounded=0;" parent="1" vertex="1">
          <mxGeometry x="280" y="520" width="60" height="30" as="geometry" />
        </mxCell>
        <mxCell id="zgMV8sDTuGKNa8VzQRrp-48" value="CG Block" style="text;html=1;strokeColor=none;fillColor=none;align=center;verticalAlign=middle;whiteSpace=wrap;rounded=0;" parent="1" vertex="1">
          <mxGeometry x="280" y="780" width="60" height="30" as="geometry" />
        </mxCell>
        <mxCell id="RsRZTkzRLWD13CaNmiui-3" value="" style="shape=waypoint;sketch=0;fillStyle=solid;size=6;pointerEvents=1;points=[];fillColor=none;resizable=0;rotatable=0;perimeter=centerPerimeter;snapToPoint=1;" vertex="1" parent="1">
          <mxGeometry x="520" y="940" width="20" height="20" as="geometry" />
        </mxCell>
        <mxCell id="RsRZTkzRLWD13CaNmiui-4" value="" style="shape=waypoint;sketch=0;fillStyle=solid;size=6;pointerEvents=1;points=[];fillColor=none;resizable=0;rotatable=0;perimeter=centerPerimeter;snapToPoint=1;" vertex="1" parent="1">
          <mxGeometry x="520" y="670" width="20" height="20" as="geometry" />
        </mxCell>
        <mxCell id="RsRZTkzRLWD13CaNmiui-5" value="" style="shape=waypoint;sketch=0;fillStyle=solid;size=6;pointerEvents=1;points=[];fillColor=none;resizable=0;rotatable=0;perimeter=centerPerimeter;snapToPoint=1;" vertex="1" parent="1">
          <mxGeometry x="520" y="430" width="20" height="20" as="geometry" />
        </mxCell>
        <mxCell id="RsRZTkzRLWD13CaNmiui-10" value="" style="edgeStyle=segmentEdgeStyle;endArrow=classic;html=1;curved=0;rounded=0;endSize=8;startSize=8;entryX=0.5;entryY=1;entryDx=0;entryDy=0;" edge="1" parent="1" target="zgMV8sDTuGKNa8VzQRrp-39">
          <mxGeometry width="50" height="50" relative="1" as="geometry">
            <mxPoint x="20" y="950" as="sourcePoint" />
            <mxPoint x="70" y="910" as="targetPoint" />
          </mxGeometry>
        </mxCell>
        <mxCell id="RsRZTkzRLWD13CaNmiui-11" value="input" style="rounded=0;whiteSpace=wrap;html=1;rotation=90;" vertex="1" parent="1">
          <mxGeometry x="50" y="650" width="120" height="60" as="geometry" />
        </mxCell>
        <mxCell id="RsRZTkzRLWD13CaNmiui-12" value="" style="edgeStyle=segmentEdgeStyle;endArrow=classic;html=1;curved=0;rounded=0;endSize=8;startSize=8;entryX=0.5;entryY=1;entryDx=0;entryDy=0;" edge="1" parent="1" target="RsRZTkzRLWD13CaNmiui-11">
          <mxGeometry width="50" height="50" relative="1" as="geometry">
            <mxPoint x="20" y="680" as="sourcePoint" />
            <mxPoint x="70" y="640" as="targetPoint" />
          </mxGeometry>
        </mxCell>
        <mxCell id="RsRZTkzRLWD13CaNmiui-13" value="input" style="rounded=0;whiteSpace=wrap;html=1;rotation=90;" vertex="1" parent="1">
          <mxGeometry x="50" y="410" width="120" height="60" as="geometry" />
        </mxCell>
        <mxCell id="RsRZTkzRLWD13CaNmiui-14" value="" style="edgeStyle=segmentEdgeStyle;endArrow=classic;html=1;curved=0;rounded=0;endSize=8;startSize=8;entryX=0.5;entryY=1;entryDx=0;entryDy=0;" edge="1" parent="1" target="RsRZTkzRLWD13CaNmiui-13">
          <mxGeometry width="50" height="50" relative="1" as="geometry">
            <mxPoint x="20" y="440" as="sourcePoint" />
            <mxPoint x="70" y="400" as="targetPoint" />
          </mxGeometry>
        </mxCell>
        <mxCell id="RsRZTkzRLWD13CaNmiui-15" value="" style="edgeStyle=orthogonalEdgeStyle;rounded=0;orthogonalLoop=1;jettySize=auto;html=1;" edge="1" parent="1">
          <mxGeometry relative="1" as="geometry">
            <mxPoint x="570" y="679.47" as="sourcePoint" />
            <mxPoint x="620" y="679.47" as="targetPoint" />
          </mxGeometry>
        </mxCell>
        <mxCell id="RsRZTkzRLWD13CaNmiui-16" value="" style="edgeStyle=orthogonalEdgeStyle;rounded=0;orthogonalLoop=1;jettySize=auto;html=1;" edge="1" parent="1">
          <mxGeometry relative="1" as="geometry">
            <mxPoint x="570" y="439.47" as="sourcePoint" />
            <mxPoint x="620" y="439.47" as="targetPoint" />
          </mxGeometry>
        </mxCell>
        <mxCell id="RsRZTkzRLWD13CaNmiui-86" value="" style="edgeStyle=orthogonalEdgeStyle;rounded=0;orthogonalLoop=1;jettySize=auto;html=1;" edge="1" parent="1" source="RsRZTkzRLWD13CaNmiui-41" target="RsRZTkzRLWD13CaNmiui-84">
          <mxGeometry relative="1" as="geometry" />
        </mxCell>
        <mxCell id="RsRZTkzRLWD13CaNmiui-41" value="PSE" style="rounded=0;whiteSpace=wrap;html=1;" vertex="1" parent="1">
          <mxGeometry x="250" y="1160" width="120" height="60" as="geometry" />
        </mxCell>
        <mxCell id="RsRZTkzRLWD13CaNmiui-81" value="" style="edgeStyle=orthogonalEdgeStyle;rounded=0;orthogonalLoop=1;jettySize=auto;html=1;" edge="1" parent="1" source="RsRZTkzRLWD13CaNmiui-42" target="RsRZTkzRLWD13CaNmiui-70">
          <mxGeometry relative="1" as="geometry" />
        </mxCell>
        <mxCell id="RsRZTkzRLWD13CaNmiui-42" value="PSE" style="rounded=0;whiteSpace=wrap;html=1;" vertex="1" parent="1">
          <mxGeometry x="250" y="1340" width="120" height="60" as="geometry" />
        </mxCell>
        <mxCell id="RsRZTkzRLWD13CaNmiui-45" value="input" style="rounded=0;whiteSpace=wrap;html=1;rotation=90;" vertex="1" parent="1">
          <mxGeometry x="20" y="1160" width="120" height="60" as="geometry" />
        </mxCell>
        <mxCell id="RsRZTkzRLWD13CaNmiui-46" value="" style="edgeStyle=elbowEdgeStyle;elbow=vertical;endArrow=classic;html=1;curved=0;rounded=0;endSize=8;startSize=8;exitX=1;exitY=0.5;exitDx=0;exitDy=0;entryX=0;entryY=0.5;entryDx=0;entryDy=0;" edge="1" parent="1" source="RsRZTkzRLWD13CaNmiui-45" target="RsRZTkzRLWD13CaNmiui-42">
          <mxGeometry width="50" height="50" relative="1" as="geometry">
            <mxPoint x="310" y="1080" as="sourcePoint" />
            <mxPoint x="170" y="1280" as="targetPoint" />
            <Array as="points">
              <mxPoint x="180" y="1370" />
            </Array>
          </mxGeometry>
        </mxCell>
        <mxCell id="RsRZTkzRLWD13CaNmiui-47" value="" style="edgeStyle=elbowEdgeStyle;elbow=vertical;endArrow=classic;html=1;curved=0;rounded=0;endSize=8;startSize=8;exitX=0.5;exitY=0;exitDx=0;exitDy=0;entryX=0;entryY=0.5;entryDx=0;entryDy=0;" edge="1" parent="1" source="RsRZTkzRLWD13CaNmiui-45" target="RsRZTkzRLWD13CaNmiui-41">
          <mxGeometry width="50" height="50" relative="1" as="geometry">
            <mxPoint x="50" y="1260" as="sourcePoint" />
            <mxPoint x="170" y="1150" as="targetPoint" />
            <Array as="points">
              <mxPoint x="170" y="1190" />
            </Array>
          </mxGeometry>
        </mxCell>
        <mxCell id="RsRZTkzRLWD13CaNmiui-50" value="" style="edgeStyle=orthogonalEdgeStyle;rounded=0;orthogonalLoop=1;jettySize=auto;html=1;exitX=1;exitY=0.5;exitDx=0;exitDy=0;" edge="1" parent="1" source="zgMV8sDTuGKNa8VzQRrp-33">
          <mxGeometry relative="1" as="geometry">
            <mxPoint x="310" y="1159.47" as="sourcePoint" />
            <mxPoint x="777" y="1191" as="targetPoint" />
          </mxGeometry>
        </mxCell>
        <mxCell id="RsRZTkzRLWD13CaNmiui-51" value="" style="edgeStyle=orthogonalEdgeStyle;rounded=0;orthogonalLoop=1;jettySize=auto;html=1;exitX=0.5;exitY=0;exitDx=0;exitDy=0;entryX=0.5;entryY=1;entryDx=0;entryDy=0;" edge="1" parent="1" source="RsRZTkzRLWD13CaNmiui-70" target="zgMV8sDTuGKNa8VzQRrp-33">
          <mxGeometry relative="1" as="geometry">
            <mxPoint x="587.81" y="1370" as="sourcePoint" />
            <mxPoint x="370" y="1319.47" as="targetPoint" />
          </mxGeometry>
        </mxCell>
        <mxCell id="RsRZTkzRLWD13CaNmiui-55" value="PSE" style="text;html=1;strokeColor=none;fillColor=none;align=center;verticalAlign=middle;whiteSpace=wrap;rounded=0;" vertex="1" parent="1">
          <mxGeometry x="260" y="1430" width="60" height="30" as="geometry" />
        </mxCell>
        <mxCell id="RsRZTkzRLWD13CaNmiui-76" value="" style="edgeStyle=orthogonalEdgeStyle;rounded=0;orthogonalLoop=1;jettySize=auto;html=1;" edge="1" parent="1" source="RsRZTkzRLWD13CaNmiui-68" target="RsRZTkzRLWD13CaNmiui-71">
          <mxGeometry relative="1" as="geometry" />
        </mxCell>
        <mxCell id="RsRZTkzRLWD13CaNmiui-68" value="PSE" style="rounded=0;whiteSpace=wrap;html=1;" vertex="1" parent="1">
          <mxGeometry x="250" y="1250" width="120" height="60" as="geometry" />
        </mxCell>
        <mxCell id="RsRZTkzRLWD13CaNmiui-70" value="SE" style="rounded=0;whiteSpace=wrap;html=1;rotation=90;" vertex="1" parent="1">
          <mxGeometry x="454.38" y="1355" width="63.75" height="30" as="geometry" />
        </mxCell>
        <mxCell id="RsRZTkzRLWD13CaNmiui-71" value="SE" style="rounded=0;whiteSpace=wrap;html=1;rotation=90;" vertex="1" parent="1">
          <mxGeometry x="454.38" y="1265" width="65.62" height="30" as="geometry" />
        </mxCell>
        <mxCell id="RsRZTkzRLWD13CaNmiui-83" value="" style="edgeStyle=orthogonalEdgeStyle;rounded=0;orthogonalLoop=1;jettySize=auto;html=1;exitX=0.5;exitY=0;exitDx=0;exitDy=0;" edge="1" parent="1" source="RsRZTkzRLWD13CaNmiui-71">
          <mxGeometry relative="1" as="geometry">
            <mxPoint x="587.81" y="1280" as="sourcePoint" />
            <mxPoint x="670" y="1280" as="targetPoint" />
          </mxGeometry>
        </mxCell>
        <mxCell id="RsRZTkzRLWD13CaNmiui-85" value="" style="edgeStyle=orthogonalEdgeStyle;rounded=0;orthogonalLoop=1;jettySize=auto;html=1;" edge="1" parent="1" source="RsRZTkzRLWD13CaNmiui-84" target="zgMV8sDTuGKNa8VzQRrp-33">
          <mxGeometry relative="1" as="geometry" />
        </mxCell>
        <mxCell id="RsRZTkzRLWD13CaNmiui-84" value="SE" style="rounded=0;whiteSpace=wrap;html=1;rotation=90;" vertex="1" parent="1">
          <mxGeometry x="454.38" y="1175" width="65.62" height="30" as="geometry" />
        </mxCell>
        <mxCell id="RsRZTkzRLWD13CaNmiui-89" value="" style="edgeStyle=orthogonalEdgeStyle;rounded=0;orthogonalLoop=1;jettySize=auto;html=1;entryX=0;entryY=0.5;entryDx=0;entryDy=0;" edge="1" parent="1" target="RsRZTkzRLWD13CaNmiui-68">
          <mxGeometry relative="1" as="geometry">
            <mxPoint x="80" y="1280" as="sourcePoint" />
            <mxPoint x="481" y="1380" as="targetPoint" />
          </mxGeometry>
        </mxCell>
        <mxCell id="RsRZTkzRLWD13CaNmiui-94" value="" style="edgeStyle=orthogonalEdgeStyle;rounded=0;orthogonalLoop=1;jettySize=auto;html=1;" edge="1" parent="1" source="RsRZTkzRLWD13CaNmiui-90" target="RsRZTkzRLWD13CaNmiui-93">
          <mxGeometry relative="1" as="geometry" />
        </mxCell>
        <mxCell id="RsRZTkzRLWD13CaNmiui-90" value="SE" style="rounded=0;whiteSpace=wrap;html=1;rotation=90;" vertex="1" parent="1">
          <mxGeometry x="750" y="1160" width="95" height="60" as="geometry" />
        </mxCell>
        <mxCell id="RsRZTkzRLWD13CaNmiui-107" value="" style="edgeStyle=orthogonalEdgeStyle;rounded=0;orthogonalLoop=1;jettySize=auto;html=1;" edge="1" parent="1" source="RsRZTkzRLWD13CaNmiui-93" target="RsRZTkzRLWD13CaNmiui-106">
          <mxGeometry relative="1" as="geometry" />
        </mxCell>
        <mxCell id="RsRZTkzRLWD13CaNmiui-93" value="CONV1X1" style="rounded=0;whiteSpace=wrap;html=1;rotation=90;" vertex="1" parent="1">
          <mxGeometry x="925" y="1160" width="95" height="60" as="geometry" />
        </mxCell>
        <mxCell id="RsRZTkzRLWD13CaNmiui-95" value="down" style="text;html=1;strokeColor=none;fillColor=none;align=center;verticalAlign=middle;whiteSpace=wrap;rounded=0;" vertex="1" parent="1">
          <mxGeometry x="80" y="1260" width="60" height="30" as="geometry" />
        </mxCell>
        <mxCell id="RsRZTkzRLWD13CaNmiui-96" value="down" style="text;html=1;strokeColor=none;fillColor=none;align=center;verticalAlign=middle;whiteSpace=wrap;rounded=0;" vertex="1" parent="1">
          <mxGeometry x="80" y="1340" width="60" height="30" as="geometry" />
        </mxCell>
        <mxCell id="RsRZTkzRLWD13CaNmiui-98" value="up" style="text;html=1;strokeColor=none;fillColor=none;align=center;verticalAlign=middle;whiteSpace=wrap;rounded=0;" vertex="1" parent="1">
          <mxGeometry x="530" y="1330" width="60" height="30" as="geometry" />
        </mxCell>
        <mxCell id="RsRZTkzRLWD13CaNmiui-104" value="up" style="text;html=1;strokeColor=none;fillColor=none;align=center;verticalAlign=middle;whiteSpace=wrap;rounded=0;" vertex="1" parent="1">
          <mxGeometry x="530" y="1240" width="60" height="30" as="geometry" />
        </mxCell>
        <mxCell id="RsRZTkzRLWD13CaNmiui-106" value="shuffel" style="rounded=0;whiteSpace=wrap;html=1;rotation=90;" vertex="1" parent="1">
          <mxGeometry x="1100" y="1160" width="95" height="60" as="geometry" />
        </mxCell>
        <mxCell id="RsRZTkzRLWD13CaNmiui-108" value="" style="edgeStyle=orthogonalEdgeStyle;rounded=0;orthogonalLoop=1;jettySize=auto;html=1;exitX=0;exitY=0.5;exitDx=0;exitDy=0;" edge="1" parent="1" source="RsRZTkzRLWD13CaNmiui-45">
          <mxGeometry relative="1" as="geometry">
            <mxPoint x="180" y="1100" as="sourcePoint" />
            <mxPoint x="1050" y="1190" as="targetPoint" />
            <Array as="points">
              <mxPoint x="80" y="1110" />
              <mxPoint x="1050" y="1110" />
            </Array>
          </mxGeometry>
        </mxCell>
        <mxCell id="RsRZTkzRLWD13CaNmiui-109" value="EPCE" style="text;html=1;strokeColor=none;fillColor=none;align=center;verticalAlign=middle;whiteSpace=wrap;rounded=0;" vertex="1" parent="1">
          <mxGeometry x="410" y="1460" width="60" height="30" as="geometry" />
        </mxCell>
        <mxCell id="RsRZTkzRLWD13CaNmiui-111" value="&lt;span style=&quot;color: rgb(0, 0, 0); font-family: Helvetica; font-size: 12px; font-style: normal; font-variant-ligatures: normal; font-variant-caps: normal; font-weight: 400; letter-spacing: normal; orphans: 2; text-align: center; text-indent: 0px; text-transform: none; widows: 2; word-spacing: 0px; -webkit-text-stroke-width: 0px; background-color: rgb(251, 251, 251); text-decoration-thickness: initial; text-decoration-style: initial; text-decoration-color: initial; float: none; display: inline !important;&quot;&gt;CSE&lt;/span&gt;" style="text;whiteSpace=wrap;html=1;" vertex="1" parent="1">
          <mxGeometry x="720" y="1260" width="60" height="40" as="geometry" />
        </mxCell>
        <mxCell id="RsRZTkzRLWD13CaNmiui-112" value="&lt;span style=&quot;color: rgb(0, 0, 0); font-family: Helvetica; font-size: 12px; font-style: normal; font-variant-ligatures: normal; font-variant-caps: normal; font-weight: 400; letter-spacing: normal; orphans: 2; text-align: center; text-indent: 0px; text-transform: none; widows: 2; word-spacing: 0px; -webkit-text-stroke-width: 0px; background-color: rgb(251, 251, 251); text-decoration-thickness: initial; text-decoration-style: initial; text-decoration-color: initial; float: none; display: inline !important;&quot;&gt;CS&lt;/span&gt;" style="text;whiteSpace=wrap;html=1;" vertex="1" parent="1">
          <mxGeometry x="1030" y="1260" width="60" height="40" as="geometry" />
        </mxCell>
      </root>
    </mxGraphModel>
  </diagram>
</mxfile>
